<svg xmlns="http://www.w3.org/2000/svg" xmlns:xlink="http://www.w3.org/1999/xlink" viewBox="0 0 73.24 85.56"><defs><style>.cls-1{fill:none;}.cls-2{isolation:isolate;}.cls-3{clip-path:url(#clip-path);}.cls-4{fill:#231f20;}.cls-5{clip-path:url(#clip-path-2);}.cls-6{fill:#fff;}</style><clipPath id="clip-path" transform="translate(0 -0.68)"><polygon class="cls-1" points="0 77.94 0 8.97 73.24 0 73.24 86.91 0 77.94"/></clipPath><clipPath id="clip-path-2" transform="translate(0 -0.68)"><polygon class="cls-1" points="10.34 64.33 10.34 22.58 58.07 19.17 58.07 67.74 10.34 64.33"/></clipPath></defs><title>Asset 4</title><g id="Layer_2" data-name="Layer 2"><g id="Layer_1-2" data-name="Layer 1"><g class="cls-2"><g class="cls-3"><path class="cls-4" d="M67.34.72,3.83,8.5A3.87,3.87,0,0,0,2.33,9a4.75,4.75,0,0,0-1.22,1.11A5.49,5.49,0,0,0,0,13.45v60a5.54,5.54,0,0,0,.3,1.78,5.27,5.27,0,0,0,.81,1.52,4.79,4.79,0,0,0,1.22,1.12,3.87,3.87,0,0,0,1.5.54l63.51,7.78A5.93,5.93,0,0,0,69.62,86a5,5,0,0,0,1.87-1,4.81,4.81,0,0,0,1.28-1.65,5.06,5.06,0,0,0,.47-2.15V5.64a5,5,0,0,0-.47-2.14,4.77,4.77,0,0,0-1.28-1.64,5.15,5.15,0,0,0-1.87-1A5.93,5.93,0,0,0,67.34.72" transform="translate(0 -0.68)"/></g></g><g class="cls-2"><g class="cls-5"><path class="cls-6" d="M13.28,22.37l-1.81.13a1.07,1.07,0,0,0-.44.13,1.69,1.69,0,0,0-.36.3,1.58,1.58,0,0,0-.24.42,1.7,1.7,0,0,0-.09.5v9.48a1.59,1.59,0,0,0,.09.5,1.33,1.33,0,0,0,.24.4,1.27,1.27,0,0,0,.36.26,1,1,0,0,0,.44.09l18-.54a1.19,1.19,0,0,0,.49-.13,1.31,1.31,0,0,0,.41-.3,1.53,1.53,0,0,0,.27-.44,1.4,1.4,0,0,0,.1-.54V30.44a1.3,1.3,0,0,0-.1-.52,1.36,1.36,0,0,0-.27-.43,1.39,1.39,0,0,0-.41-.27,1.33,1.33,0,0,0-.49-.09l-13.85.64a1,1,0,0,1-.45-.08,1,1,0,0,1-.36-.26,1.18,1.18,0,0,1-.25-.4,1.35,1.35,0,0,1-.09-.5v-5a1.35,1.35,0,0,0-.09-.5,1.14,1.14,0,0,0-.25-.39,1,1,0,0,0-.36-.25,1.1,1.1,0,0,0-.44-.07" transform="translate(0 -0.68)"/><path class="cls-6" d="M56.5,48.05l-21-.28a1.24,1.24,0,0,0-.54.1,1.48,1.48,0,0,0-.43.31,1.44,1.44,0,0,0-.29.46,1.47,1.47,0,0,0-.11.56V61.81a1.56,1.56,0,0,0,.11.57,1.49,1.49,0,0,0,.29.47,1.41,1.41,0,0,0,.43.34,1.67,1.67,0,0,0,.54.15l21,1.31a1.35,1.35,0,0,0,.61-.08,1.48,1.48,0,0,0,.5-.3,1.4,1.4,0,0,0,.46-1.07V61a1.58,1.58,0,0,0-.12-.61,1.7,1.7,0,0,0-.34-.5,1.64,1.64,0,0,0-.5-.36,1.71,1.71,0,0,0-.61-.15l-16.18-.76a1.51,1.51,0,0,1-1.3-1,1.56,1.56,0,0,1-.11-.57V54.33a1.48,1.48,0,0,1,.11-.57,1.27,1.27,0,0,1,.3-.45,1.23,1.23,0,0,1,.45-.3,1.28,1.28,0,0,1,.55-.1l16.18.47a1.51,1.51,0,0,0,.61-.1,1.52,1.52,0,0,0,.84-.81,1.5,1.5,0,0,0,.12-.6V49.63A1.58,1.58,0,0,0,58,49a1.85,1.85,0,0,0-.34-.5,1.58,1.58,0,0,0-.5-.34,1.7,1.7,0,0,0-.61-.13" transform="translate(0 -0.68)"/><path class="cls-6" d="M46.76,20l-2.18.15a1.52,1.52,0,0,0-.55.16,1.49,1.49,0,0,0-.45.34,1.57,1.57,0,0,0-.41,1.06v5.36a1.56,1.56,0,0,1-.11.57,1.66,1.66,0,0,1-.76.81,1.44,1.44,0,0,1-.55.14l-5.07.23a1.34,1.34,0,0,0-.53.14,1.38,1.38,0,0,0-.44.32,1.49,1.49,0,0,0-.29.47,1.69,1.69,0,0,0-.1.56v2.14a1.58,1.58,0,0,0,.1.55,1.51,1.51,0,0,0,.29.45,1.46,1.46,0,0,0,.44.29,1.32,1.32,0,0,0,.53.1l18.52-.56a1.75,1.75,0,0,0,.59-.14,1.61,1.61,0,0,0,.48-.34,1.56,1.56,0,0,0,.33-.5,1.45,1.45,0,0,0,.12-.59V29.4a1.45,1.45,0,0,0-.12-.59,1.43,1.43,0,0,0-.33-.47A1.44,1.44,0,0,0,55.2,28l-5.52.25a1.39,1.39,0,0,1-1-.39,1.29,1.29,0,0,1-.31-.45,1.32,1.32,0,0,1-.12-.57V21.35a1.48,1.48,0,0,0-.11-.57,1.28,1.28,0,0,0-.32-.44,1.16,1.16,0,0,0-.46-.29,1.29,1.29,0,0,0-.56-.07" transform="translate(0 -0.68)"/><path class="cls-6" d="M21.12,44.91H19.23a1,1,0,0,0-.46.1,1.29,1.29,0,0,0-.38.28,1.27,1.27,0,0,0-.25.42,1.46,1.46,0,0,0-.1.52V63.56a1.5,1.5,0,0,0,.1.52,1.48,1.48,0,0,0,.25.44,1.61,1.61,0,0,0,.38.31,1.22,1.22,0,0,0,.46.13l1.89.14A1.27,1.27,0,0,0,21.6,65a1.22,1.22,0,0,0,.38-.26,1.25,1.25,0,0,0,.26-.41,1.4,1.4,0,0,0,.1-.51V46.25a1.5,1.5,0,0,0-.1-.52A1.45,1.45,0,0,0,22,45.3a1.19,1.19,0,0,0-.86-.39" transform="translate(0 -0.68)"/></g></g></g></g></svg>