<svg xmlns="http://www.w3.org/2000/svg" xmlns:xlink="http://www.w3.org/1999/xlink" viewBox="0 0 73.24 85.55"><defs><style>.cls-1{fill:none;}.cls-2{isolation:isolate;}.cls-3{clip-path:url(#clip-path);}.cls-4{fill:#231f20;}.cls-5{clip-path:url(#clip-path-2);}.cls-6{fill:#fff;}</style><clipPath id="clip-path" transform="translate(0 -0.68)"><polygon class="cls-1" points="0 86.91 0 0 73.24 8.97 73.24 77.94 0 86.91"/></clipPath><clipPath id="clip-path-2" transform="translate(0 -0.68)"><polygon class="cls-1" points="15.17 67.74 15.17 19.17 62.89 22.58 62.89 64.33 15.17 67.74"/></clipPath></defs><title>Asset 3</title><g id="Layer_2" data-name="Layer 2"><g id="Layer_1-2" data-name="Layer 1"><g class="cls-2"><g class="cls-3"><path class="cls-4" d="M69.41,8.5,5.91.72A5.91,5.91,0,0,0,3.63.88a5.28,5.28,0,0,0-1.88,1A4.77,4.77,0,0,0,.47,3.5,5,5,0,0,0,0,5.64V81.25A5.06,5.06,0,0,0,.47,83.4a4.81,4.81,0,0,0,1.28,1.65,5.1,5.1,0,0,0,1.88,1,5.91,5.91,0,0,0,2.28.17l63.5-7.78a3.87,3.87,0,0,0,1.5-.54,4.79,4.79,0,0,0,1.22-1.12,5.27,5.27,0,0,0,.81-1.52,5.54,5.54,0,0,0,.3-1.78v-60a5.49,5.49,0,0,0-1.11-3.3A4.94,4.94,0,0,0,70.91,9a3.87,3.87,0,0,0-1.5-.54" transform="translate(0 -0.68)"/></g></g><g class="cls-2"><g class="cls-5"><path class="cls-6" d="M19.05,19.45l-2.38-.17a1.41,1.41,0,0,0-.58.07,1.35,1.35,0,0,0-.48.28,1.28,1.28,0,0,0-.32.45,1.32,1.32,0,0,0-.12.57v11a1.4,1.4,0,0,0,.12.58,1.34,1.34,0,0,0,.32.49,1.47,1.47,0,0,0,.48.33,1.44,1.44,0,0,0,.58.13l21.12.64a1.1,1.1,0,0,0,.51-.09,1.19,1.19,0,0,0,.42-.28,1.36,1.36,0,0,0,.38-1V30.3a1.4,1.4,0,0,0-.1-.54,1.48,1.48,0,0,0-.28-.45A1.3,1.3,0,0,0,38.3,29a1.14,1.14,0,0,0-.51-.13L22,28.13a1.47,1.47,0,0,1-1-.48,1.48,1.48,0,0,1-.31-.47,1.4,1.4,0,0,1-.12-.58V21a1.62,1.62,0,0,0-.11-.58,1.55,1.55,0,0,0-.32-.48,1.65,1.65,0,0,0-.47-.35,1.55,1.55,0,0,0-.57-.15" transform="translate(0 -0.68)"/><path class="cls-6" d="M61.73,47.44l-17.85.24a1.52,1.52,0,0,0-.52.12,1.3,1.3,0,0,0-.42.32,1.27,1.27,0,0,0-.28.46,1.46,1.46,0,0,0-.11.55V61.61a1.42,1.42,0,0,0,.11.55,1.15,1.15,0,0,0,.28.43,1.19,1.19,0,0,0,.42.28,1.29,1.29,0,0,0,.52.08l17.85-1.12a1.17,1.17,0,0,0,.45-.13,1.23,1.23,0,0,0,.37-.31A1.48,1.48,0,0,0,62.8,61a1.5,1.5,0,0,0,.09-.52V58.49A1.44,1.44,0,0,0,62.8,58a1.22,1.22,0,0,0-.25-.41,1,1,0,0,0-.82-.35l-13.36.63A1.24,1.24,0,0,1,47.18,57a1.62,1.62,0,0,1-.1-.54V53.89a1.68,1.68,0,0,1,.1-.55,1.48,1.48,0,0,1,.28-.45,1.35,1.35,0,0,1,.41-.31,1.28,1.28,0,0,1,.5-.13l13.36-.39a1,1,0,0,0,.45-.12,1.07,1.07,0,0,0,.37-.3,1.31,1.31,0,0,0,.25-.43,1.5,1.5,0,0,0,.09-.52V48.76a1.4,1.4,0,0,0-.09-.51,1.31,1.31,0,0,0-.25-.43,1.13,1.13,0,0,0-.37-.28,1,1,0,0,0-.45-.1" transform="translate(0 -0.68)"/><path class="cls-6" d="M54,21.94l-1.85-.13a1.27,1.27,0,0,0-.48.07,1.05,1.05,0,0,0-.39.27,1.33,1.33,0,0,0-.27.41,1.5,1.5,0,0,0-.09.52v5a1.46,1.46,0,0,1-.1.52,1.31,1.31,0,0,1-.66.7,1.15,1.15,0,0,1-.49.08L45,29.19a1.17,1.17,0,0,0-.5.08,1.34,1.34,0,0,0-.42.28,1.3,1.3,0,0,0-.27.44,1.33,1.33,0,0,0-.1.54v2.1a1.42,1.42,0,0,0,.1.55,1.51,1.51,0,0,0,.27.46,1.43,1.43,0,0,0,.42.31,1.19,1.19,0,0,0,.5.12l15.74.48a1.13,1.13,0,0,0,.45-.09,1.11,1.11,0,0,0,.37-.27,1.55,1.55,0,0,0,.25-.41,1.44,1.44,0,0,0,.09-.51v-2a1.44,1.44,0,0,0-.09-.51,1.52,1.52,0,0,0-.25-.43,1.07,1.07,0,0,0-.37-.3,1,1,0,0,0-.45-.13l-4.33-.2a1.21,1.21,0,0,1-.47-.12,1.4,1.4,0,0,1-.38-.31,1.39,1.39,0,0,1-.26-.44,1.5,1.5,0,0,1-.1-.52V23.37a1.6,1.6,0,0,0-.09-.53,1.5,1.5,0,0,0-.26-.44,1.44,1.44,0,0,0-.38-.32,1.5,1.5,0,0,0-.47-.14" transform="translate(0 -0.68)"/><path class="cls-6" d="M28.68,45H26.46a1.31,1.31,0,0,0-.56.12,1.39,1.39,0,0,0-.45.31,1.38,1.38,0,0,0-.31.47,1.47,1.47,0,0,0-.11.56v19.1a1.42,1.42,0,0,0,.11.55,1.25,1.25,0,0,0,.31.44,1.31,1.31,0,0,0,.45.28,1.29,1.29,0,0,0,.56.07l2.22-.16a1.33,1.33,0,0,0,.55-.15,1.58,1.58,0,0,0,.44-.34,1.45,1.45,0,0,0,.3-.47,1.51,1.51,0,0,0,.11-.56V46.45a1.47,1.47,0,0,0-.11-.56,1.27,1.27,0,0,0-.3-.45,1.33,1.33,0,0,0-1-.42" transform="translate(0 -0.68)"/></g></g></g></g></svg>